<?xml version="1.0" standalone="no"?>
<!DOCTYPE svg PUBLIC "-//W3C//DTD SVG 20010904//EN"
 "http://www.w3.org/TR/2001/REC-SVG-20010904/DTD/svg10.dtd">
<svg version="1.0" xmlns="http://www.w3.org/2000/svg"
 width="162.000000pt" height="32.000000pt" viewBox="0 0 162.000000 32.000000"
 preserveAspectRatio="xMidYMid meet">

<g transform="translate(0.000000,32.000000) scale(0.100000,-0.100000)"
fill="#000000" stroke="none">
<path d="M108 254 c-30 -16 -58 -61 -58 -94 0 -34 28 -78 60 -95 16 -8 38 -15
50 -15 53 0 110 57 110 110 0 34 -28 78 -60 95 -36 19 -67 19 -102 -1z m58
-36 c-1 -17 -7 -33 -14 -36 -19 -6 -3 -22 23 -22 35 0 39 -16 15 -56 -27 -42
-41 -40 -55 10 -7 22 -20 42 -35 49 -13 7 -25 17 -27 24 -7 19 43 63 70 63 21
0 24 -4 23 -32z m84 -43 c0 -26 -14 -33 -25 -15 -9 14 1 40 15 40 5 0 10 -11
10 -25z"/>
<path d="M766 198 c-3 -13 -6 -35 -6 -50 0 -16 -5 -28 -10 -28 -18 0 -24 31
-11 52 11 17 10 19 -6 16 -13 -2 -18 -12 -18 -38 0 -33 2 -35 38 -38 l37 -3 0
55 c0 57 -13 75 -24 34z"/>
<path d="M1070 210 c0 -5 7 -10 15 -10 8 0 15 5 15 10 0 6 -7 10 -15 10 -8 0
-15 -4 -15 -10z"/>
<path d="M1210 210 c0 -5 7 -10 15 -10 8 0 15 5 15 10 0 6 -7 10 -15 10 -8 0
-15 -4 -15 -10z"/>
<path d="M370 160 c0 -38 4 -50 15 -50 10 0 15 11 16 33 0 30 1 31 11 10 14
-29 22 -29 36 0 10 21 11 20 11 -10 1 -22 6 -33 16 -33 11 0 15 12 15 50 0 42
-3 50 -18 50 -11 0 -24 -12 -32 -27 l-13 -28 -9 28 c-6 17 -17 27 -29 27 -16
0 -19 -7 -19 -50z"/>
<path d="M970 163 c23 -62 43 -66 64 -13 18 46 20 60 7 60 -4 0 -15 -17 -23
-37 l-14 -38 -13 38 c-7 20 -19 37 -26 37 -10 0 -9 -10 5 -47z"/>
<path d="M1452 195 c-7 -9 -8 -15 -2 -15 5 0 10 -16 10 -35 0 -30 3 -35 23
-34 12 0 16 3 10 6 -16 6 -17 63 -2 63 6 0 4 7 -5 15 -18 18 -18 18 -34 0z"/>
<path d="M512 153 c2 -29 8 -39 23 -41 16 -3 18 -1 8 9 -7 7 -13 26 -13 41 0
15 -5 28 -11 28 -6 0 -9 -16 -7 -37z"/>
<path d="M560 150 c0 -29 4 -40 15 -40 11 0 15 11 15 40 0 29 -4 40 -15 40
-11 0 -15 -11 -15 -40z"/>
<path d="M610 150 c0 -29 4 -40 15 -40 11 0 15 11 15 40 0 29 -4 40 -15 40
-11 0 -15 -11 -15 -40z"/>
<path d="M659 172 c6 -12 11 -30 11 -41 0 -12 5 -21 11 -21 6 0 9 16 7 37 -2
27 -8 39 -21 41 -16 3 -17 1 -8 -16z"/>
<path d="M823 183 c-7 -2 -13 -18 -13 -34 0 -22 6 -30 25 -35 29 -7 55 10 55
35 0 33 -32 49 -67 34z m41 -18 c7 -18 -2 -45 -15 -45 -13 0 -22 27 -15 45 3
8 10 15 15 15 5 0 11 -7 15 -15z"/>
<path d="M1070 150 c0 -29 4 -40 15 -40 11 0 15 11 15 40 0 29 -4 40 -15 40
-11 0 -15 -11 -15 -40z"/>
<path d="M1143 183 c33 -5 36 -20 5 -25 -15 -2 -23 -10 -23 -23 0 -16 7 -20
33 -22 32 -1 33 0 30 35 -3 35 -5 37 -38 38 -26 1 -28 1 -7 -3z m25 -45 c-6
-18 -28 -21 -28 -4 0 9 7 16 16 16 9 0 14 -5 12 -12z"/>
<path d="M1208 135 c-3 -57 4 -69 22 -36 15 30 13 91 -4 91 -10 0 -15 -16 -18
-55z"/>
<path d="M1283 183 c33 -5 36 -20 5 -25 -15 -2 -23 -10 -23 -23 0 -16 7 -20
33 -22 32 -1 33 0 30 35 -3 35 -5 37 -38 38 -26 1 -28 1 -7 -3z m25 -45 c-6
-18 -28 -21 -28 -4 0 9 7 16 16 16 9 0 14 -5 12 -12z"/>
<path d="M1350 150 c0 -29 4 -40 15 -40 11 0 15 11 15 40 0 29 -4 40 -15 40
-11 0 -15 -11 -15 -40z"/>
<path d="M1399 172 c6 -12 11 -30 11 -41 0 -12 5 -21 11 -21 6 0 9 16 7 37 -2
27 -8 39 -21 41 -16 3 -17 1 -8 -16z"/>
<path d="M1532 178 c-26 -26 -6 -69 33 -67 19 0 19 1 -2 9 -33 13 -28 30 7 30
17 0 30 4 30 8 0 14 -23 32 -40 32 -9 0 -21 -5 -28 -12z m38 -8 c0 -5 -7 -10
-16 -10 -8 0 -12 5 -9 10 3 6 10 10 16 10 5 0 9 -4 9 -10z"/>
</g>
</svg>
